<?xml version="1.0" encoding="UTF-8"?> <svg xmlns="http://www.w3.org/2000/svg" xmlns:xlink="http://www.w3.org/1999/xlink" xmlns:svgjs="http://svgjs.com/svgjs" width="512" height="512" x="0" y="0" viewBox="0 0 64 64" style="enable-background:new 0 0 512 512" xml:space="preserve" class=""> <g> <g xmlns="http://www.w3.org/2000/svg"> <g> <g> <path d="m23 38h-6v-16h6z" fill="#3d9643" data-original="#f0bc5e" style="" class=""></path> </g> </g> <g> <path d="m17.821 42.184-7.718 13.061 9.274-1.16 3.481 8.122 5.989-10.137z" fill="#3d9643" data-original="#f0bc5e" style="" class=""></path> </g> <g> <path d="m35.153 52.07 5.989 10.137 3.481-8.122 9.274 1.16-7.718-13.061z" fill="#3d9643" data-original="#f0bc5e" style="" class=""></path> </g> <g> <path d="m44.026 1h-.721c-4.035 0-7.996 1.305-11.303 3.738-3.256-2.415-7.245-3.738-11.307-3.738h-.721c-10.462 0-18.974 8.512-18.974 18.974 0 5.384 2.299 10.534 6.308 14.128l14.813 13.28-3.607 6.2 1.729 1.006 3.399-5.843 5.947 5.332c.663.595 1.519.923 2.411.923s1.748-.328 2.412-.923l5.947-5.332 3.399 5.843 1.729-1.006-3.607-6.2 14.813-13.28c4.008-3.594 6.307-8.744 6.307-14.128 0-10.462-8.512-18.974-18.974-18.974zm-40.733 22h20.707c.551 0 1 .449 1 1v12c0 .551-.449 1-1 1h-10.464l-4.893-4.387c-2.824-2.532-4.681-5.932-5.35-9.613zm52.064 9.613-22.28 19.975c-.593.531-1.562.531-2.154 0l-15.156-13.588h8.233c1.302 0 2.402-.839 2.816-2h1.022l1.922.641c.715.238 1.46.359 2.214.359h11.026c1.654 0 3-1.346 3-3 0-.537-.153-1.034-.401-1.471.839-.532 1.401-1.464 1.401-2.529 0-.537-.153-1.034-.401-1.471.839-.532 1.401-1.464 1.401-2.529 0-.537-.153-1.034-.401-1.471.839-.532 1.401-1.464 1.401-2.529 0-1.654-1.346-3-3-3h-5c-.551 0-1-.449-1-1v-7c0-2.206-1.794-4-4-4-1.103 0-2 .897-2 2v5.395c0 2.548-1.266 4.914-3.387 6.328-1.138.759-2.448 1.174-3.807 1.247-.422-1.146-1.515-1.97-2.806-1.97h-20.945c-.021-.342-.055-.682-.055-1.026 0-9.359 7.615-16.974 16.974-16.974h.721c3.84 0 7.605 1.321 10.604 3.72l.701.558.623-.496.078-.063c2.999-2.398 6.764-3.719 10.604-3.719h.721c9.359 0 16.974 7.615 16.974 16.974 0 4.817-2.057 9.424-5.643 12.639zm-28.357-7.657c1.685-.106 3.309-.626 4.723-1.569 2.678-1.786 4.277-4.774 4.277-7.992v-5.395c1.103 0 2 .897 2 2v7c0 1.654 1.346 3 3 3h5c.551 0 1 .449 1 1s-.449 1-1 1h-1-3v2h3c.551 0 1 .449 1 1s-.449 1-1 1h-1-2v2h2c.551 0 1 .449 1 1s-.449 1-1 1h-1-1v2h1c.551 0 1 .449 1 1s-.449 1-1 1h-11.026c-.539 0-1.07-.086-1.582-.257l-2.23-.743h-1.162z" fill="#000000" data-original="#000000" style="" class=""></path> <path d="m7.035 12.444 1.727 1.009c2.324-3.98 6.621-6.453 11.212-6.453v-2c-5.3 0-10.258 2.853-12.939 7.444z" fill="#000000" data-original="#000000" style="" class=""></path> <path d="m5.341 16.787 1.954.426c.139-.636.327-1.266.559-1.871l-1.867-.717c-.268.7-.486 1.427-.646 2.162z" fill="#000000" data-original="#000000" style="" class=""></path> <path d="m55.821 25.375 1.818.834c.296-.647.549-1.322.75-2.006l-1.919-.564c-.174.591-.392 1.176-.649 1.736z" fill="#000000" data-original="#000000" style="" class=""></path> <path d="m53.817 28.486 1.509 1.313c.467-.537.9-1.113 1.286-1.713l-1.682-1.083c-.334.519-.709 1.018-1.113 1.483z" fill="#000000" data-original="#000000" style="" class=""></path> <path d="m57 19.974c0 .618-.045 1.24-.133 1.85l1.979.287c.102-.704.154-1.423.154-2.137z" fill="#000000" data-original="#000000" style="" class=""></path> <path d="m31 45h2v2h-2z" fill="#000000" data-original="#000000" style="" class=""></path> <path d="m27 45h2v2h-2z" fill="#000000" data-original="#000000" style="" class=""></path> <path d="m35 45h2v2h-2z" fill="#000000" data-original="#000000" style="" class=""></path> </g> </g> </g> </svg> 