<?xml version="1.0" encoding="UTF-8"?> <svg xmlns="http://www.w3.org/2000/svg" xmlns:xlink="http://www.w3.org/1999/xlink" xmlns:svgjs="http://svgjs.com/svgjs" width="512" height="512" x="0" y="0" viewBox="0 0 64 64" style="enable-background:new 0 0 512 512" xml:space="preserve" class=""> <g> <g xmlns="http://www.w3.org/2000/svg"> <g> <g> <path d="m37 43h-10v-16h10z" fill="#3d9644" data-original="#f0bc5e" style="" class=""></path> </g> </g> <g> <g> <path d="m57 31h-8v-8h8z" fill="#3d9644" data-original="#f0bc5e" style="" class=""></path> </g> </g> <g> <g> <path d="m57 41h-8v-8h8z" fill="#3d9644" data-original="#f0bc5e" style="" class=""></path> </g> </g> <g> <path d="m63 21v-5.333l-6.5-8.667h-17.442l-5.625-6h-2.867l-5.625 6h-17.441l-6.5 8.667v5.333h2v22h-2v20h62v-20h-2v-22zm-14-2v-1.396l-.567-.604h12.567v2zm-4 27v1h-6v-1c0-.551.448-1 1-1h4c.552 0 1 .449 1 1zm4 5h4v10h-4zm-10 10h-4v-8h4zm-6-10v10h-2v-10h-8v10h-2v-12h22v12h-2v-10zm-4 10h-4v-8h4zm-14 0h-4v-10h4zm-12-42v-2h12.567l-.567.604v1.396zm22 4v1c0 .551-.448 1-1 1h-4c-.552 0-1-.449-1-1v-1zm16 20v-16h2v16zm-2-16.184v16.369c-1.161.414-2 1.514-2 2.816v1h-10v-1c0-1.302-.839-2.402-2-2.816v-16.369c1.161-.414 2-1.514 2-2.816v-1h10v1c0 1.302.839 2.402 2 2.816zm-16 .184v16h-2v-16zm-3 18h4c.552 0 1 .449 1 1v1h-6v-1c0-.551.448-1 1-1zm-1 4v12h-2v-12zm26 0h2v12h-2zm-1-24h-4c-.552 0-1-.449-1-1v-1h6v1c0 .551-.448 1-1 1zm-27-4v-2h30v2zm6.792-4 8.208-8.756 8.208 8.756zm31.708-8 4.5 6h-13.442l-5.625-6zm-24.066-6h1.133l13.125 14h-2.742l-10.95-11.68-10.95 11.68h-2.742zm-22.934 6h14.567l-5.625 6h-13.442zm6.5 12v2h2v1c0 1.302.839 2.402 2 2.816v16.184h-14v-22zm-12 24h1 13.184c-.112.314-.184.648-.184 1v1h-2v2h-6v12h-6zm58 16h-6v-12h-6v-2h-2v-1c0-.352-.072-.686-.184-1h13.184 1zm-2-18h-14v-16.184c1.161-.414 2-1.514 2-2.816v-1h2v-2h10z" fill="#000000" data-original="#000000" style=""></path> <path d="m29 13c0 1.654 1.346 3 3 3s3-1.346 3-3-1.346-3-3-3-3 1.346-3 3zm4 0c0 .551-.448 1-1 1s-1-.449-1-1 .448-1 1-1 1 .449 1 1z" fill="#000000" data-original="#000000" style=""></path> </g> <g> <g> <path d="m15 31h-8v-8h8z" fill="#3d9644" data-original="#f0bc5e" style="" class=""></path> </g> </g> <g> <g> <path d="m15 41h-8v-8h8z" fill="#3d9644" data-original="#f0bc5e" style="" class=""></path> </g> </g> </g> </g> </svg> 