<?xml version="1.0" encoding="UTF-8"?> <!-- Generator: Adobe Illustrator 24.0.2, SVG Export Plug-In . SVG Version: 6.00 Build 0) --> <svg xmlns:svgjs="http://svgjs.com/svgjs" xmlns="http://www.w3.org/2000/svg" xmlns:xlink="http://www.w3.org/1999/xlink" id="Layer_1" x="0px" y="0px" viewBox="0 0 512 512" style="enable-background:new 0 0 512 512;" xml:space="preserve"> <style type="text/css"> .st0{fill:#3D9644;} </style> <g> <g> <path class="st0" d="M346.8,503.7l-16.5-82.6l16.5-24.8l-33-24.8l-33,24.8l16.5,24.8l-16.5,82.6H346.8z"></path> <path d="M410.6,67.9l-2-3.9C388.9,24.6,349.4,0.2,305.4,0.2c-63.7,0-115.4,51.8-115.4,115.4v33h247.7v-39.8 C437.7,90.9,426.9,74.8,410.6,67.9z"></path> <path class="st0" d="M123.9,148.6l-49.5-33H0V0h148.6v115.6h-24.8V148.6z"></path> </g> <path d="M466.7,346.7l-103.4-23v-16.4c15.7-10.3,28-25.3,35-43h22.8c18.2,0,33-14.8,33-33v-57.8c0-18.2-14.8-33-33-33h-16.5v-24.8 h-16.5v19.5c-6.2,3.1-12.9,4.9-19.8,5.2c3.8-3.5,7.2-7.4,10.2-11.8l-13.7-9.2c-8.5,12.7-22.5,20.4-37.7,21 c3.8-3.5,7.2-7.4,10.2-11.8l-13.7-9.2c-8.5,12.7-22.5,20.4-37.7,21c3.8-3.5,7.2-7.4,10.2-11.8l-13.7-9.2 c-8.8,13.2-23.5,21.1-39.4,21.1h-3.3v-24.8H223v24.8h-16.5c-18.2,0-33,14.8-33,33v57.8c0,18.2,14.8,33,33,33h22.8 c6.9,17.7,19.3,32.7,35,43v16.4l-103.4,23c-26.6,5.9-45.3,29.1-45.3,56.4V512H512V403.1C512,375.8,493.4,352.6,466.7,346.7z M370.5,342.2l-12.3,49.1l-31.4-20.9l31-31L370.5,342.2z M421.2,156.9c9.1,0,16.5,7.4,16.5,16.5v57.8c0,9.1-7.4,16.5-16.5,16.5 h-18.1c1-5.4,1.6-10.9,1.6-16.5v-74.3H421.2z M206.5,247.7c-9.1,0-16.5-7.4-16.5-16.5v-57.8c0-9.1,7.4-16.5,16.5-16.5H223v74.3 c0,5.6,0.6,11.1,1.6,16.5H206.5z M239.5,231.2v-74.3h3.3c10.6,0,20.7-2.6,29.8-7.4v7.4H284c10.6,0,20.7-2.6,29.8-7.4v7.4h11.5 c10.6,0,20.7-2.6,29.8-7.4v7.4h11.5c7.4,0,14.6-1.4,21.5-3.9v78.2c0,5.7-0.7,11.2-1.9,16.5h-40.9c-3.4-9.6-12.5-16.5-23.3-16.5 h-16.5c-13.7,0-24.8,11.1-24.8,24.8c0,13.7,11.1,24.8,24.8,24.8h16.5c10.8,0,19.8-6.9,23.3-16.5h35c-12.2,24.4-37.4,41.3-66.5,41.3 C272.8,305.5,239.5,272.2,239.5,231.2z M330.3,256c0,4.5-3.7,8.3-8.3,8.3h-16.5c-4.6,0-8.3-3.7-8.3-8.3c0-4.5,3.7-8.3,8.3-8.3h16.5 C326.6,247.7,330.3,251.5,330.3,256z M313.8,322.1c11.7,0,22.8-2.3,33-6.3v11.1l-33,33l-33-33v-11.1 C291,319.8,302.1,322.1,313.8,322.1z M269.9,339.4l31,31l-31.4,20.9l-12.3-49.1L269.9,339.4z M495.5,495.5h-49.5v-90.8h-16.5v90.8 H198.2v-90.8h-16.5v90.8h-49.5v-92.4c0-19.5,13.3-36.1,32.3-40.3l76.6-17l18.1,72.2l54.7-36.5l54.7,36.5l18.1-72.2l76.6,17 c19,4.2,32.3,20.8,32.3,40.3V495.5z"></path> <path d="M371.6,181.7c0,4.6-3.7,8.3-8.3,8.3s-8.3-3.7-8.3-8.3s3.7-8.3,8.3-8.3S371.6,177.1,371.6,181.7z"></path> <path d="M272.5,181.7c0,4.6-3.7,8.3-8.3,8.3s-8.3-3.7-8.3-8.3s3.7-8.3,8.3-8.3S272.5,177.1,272.5,181.7z"></path> <path d="M33,33h82.6v16.5H33V33z"></path> <path d="M33,66.1h82.6v16.5H33V66.1z"></path> <path d="M173.4,305.5H40.2l9.3-14V156.9c0-13.7-11.1-24.8-24.8-24.8S0,143.2,0,156.9v134.6l20.4,30.5h153.1V305.5z M24.8,148.6 c4.6,0,8.3,3.7,8.3,8.3v16.5H16.5v-16.5C16.5,152.4,20.2,148.6,24.8,148.6z M24.8,298.9l-8.3-12.4v-96.6H33v96.6L24.8,298.9z"></path> <path d="M156.9,272.5h16.5V289h-16.5V272.5z"></path> <path d="M66.1,272.5h74.3V289H66.1V272.5z"></path> <path d="M66.1,239.5h74.3V256H66.1V239.5z"></path> <path d="M123.9,206.5h16.5V223h-16.5V206.5z"></path> <path d="M66.1,206.5h41.3V223H66.1V206.5z"></path> </g> </svg> 