<?xml version="1.0" encoding="UTF-8"?> <!-- Generator: Adobe Illustrator 24.0.2, SVG Export Plug-In . SVG Version: 6.00 Build 0) --> <svg xmlns:svgjs="http://svgjs.com/svgjs" xmlns="http://www.w3.org/2000/svg" xmlns:xlink="http://www.w3.org/1999/xlink" id="Layer_1" x="0px" y="0px" viewBox="0 0 512 512" style="enable-background:new 0 0 512 512;" xml:space="preserve"> <style type="text/css"> .st0{fill:#3D9644;} </style> <g> <g> <path d="M480,97.5c0-21.2-9.4-41.4-25.8-55l-2.3-1.9C439,29.9,422.8,24,406.1,24c-32.7,0-60.8,22.1-69.1,53L372.8,65 c2.1-0.7,4.3-1,6.5-1c7.8,0,14.9,4.4,18.3,11.3L408,96h9.3c17,0,30.7,13.7,30.7,30.7c0,6.1-1.8,12-5.2,17L432,160v32l0.6,0.3 c19.2,9.6,31.4,29.3,31.4,50.8v1.6c22.5-6.6,32-20.7,32-20.7c-10.4-15.6-16-34-16-52.8V97.5z"></path> <path d="M148.7,56c2.2,0,4.4,0.4,6.5,1.1L191,69c-8.3-30.9-36.4-53-69.1-53c-16.7,0-33,5.9-45.8,16.6C58.3,47.4,48,69.4,48,92.6 v17.7c0,26.1,13,50.5,34.8,65l10,6.6l3.3-3.7V152l-10.8-16.3c-3.4-5-5.2-11-5.2-17c0-17,13.7-30.7,30.7-30.7h9.3l10.3-20.7 C133.8,60.4,140.9,56,148.7,56z"></path> <path class="st0" d="M137.9,319l-8.5-101.5L120,208l-9.5,9.5l-5.4,64.2l30.4,35.6C136.2,318,137,318.5,137.9,319L137.9,319z"></path> <path class="st0" d="M142,368h-9.8c-9,0-17.6-3.8-23.7-10.4l-8.9-9.7L96,392l24,24l24-24L142,368z"></path> <path class="st0" d="M464,336v88c0,13.3-10.7,24-24,24s-24-10.7-24-24v-88h-40v112h128V336H464z"></path> </g> <path d="M502.7,219.6c-9.6-14.4-14.7-31.1-14.7-48.4V97.5c0-23.7-10.4-46-28.6-61.1l-2.3-1.9c-14.3-11.9-32.4-18.4-51-18.4 c-39.3,0-73.2,29.4-78.8,68.3l-8,56.2l18.2,9.1l8.8,26.3H376v8v3.2v8.8l-39.1,29.3C321.3,237,312,255.7,312,275.2 c0,3.5,0.4,6.9,1,10.3L290.4,312h-58.2H232h-32v-53.4c0-31.8-19.1-60-48-72.1V168h29.8l8.8-26.3l18.2-9.1l-8-56.2 C195.1,37.4,161.3,8,121.9,8c-18.6,0-36.7,6.6-51,18.4C51.3,42.8,40,67,40,92.6v17.7c0,27.8,13.4,53.5,35.8,69.7l-18.6,3.7 c-27.8,5.6-48.2,29.8-49.1,58H8V504h192V376h32h0.2h67.6c10.6,0,20.7-4.4,28.2-11.8V504h144v-56h-11.1c6.7-5.9,11.1-14.4,11.1-24 V250.4c20.9-7.9,30.2-21.3,30.7-21.9l3-4.4L502.7,219.6z M392,174.5c9.3-3.3,16-12.1,16-22.5v-8h-16v8c0,4.4-3.6,8-8,8h-26.2 l-7.2-21.7l-13.8-6.9l6.4-44.8c0.2-1.2,0.4-2.3,0.7-3.4l31.6-10.5c5.8-1.9,12.4,0.8,15.1,6.3l12.5,25.1h14.2 c12.5,0,22.7,10.2,22.7,22.7c0,4.5-1.3,8.8-3.8,12.6L424,157.6v24l-8.5,12.7c-2.4,3.6-6.4,5.7-10.7,5.7c-7.1,0-12.8-5.8-12.8-12.8 V184L392,174.5z M184,258.6V312h-42.4L89,250.3l31-31l37.3,37.3l7.2-43.1C176.6,225,184,241.1,184,258.6z M93.4,192.7l14.1,14.1 l1.2,1.2l-15,15l-4.2-29.6L93.4,192.7z M144.9,201c1.7,0.7,3.5,1.3,5.2,2.2l-3.4,20.1l-14.1-14.1L144.9,201z M177.5,130.3 l-7.2,21.7H144c-4.4,0-8-3.6-8-8v-8h-16v8c0,10.4,6.7,19.2,16,22.5v21.2l-15,10l-17-17v-31.1l-12.2-18.3c-2.5-3.7-3.8-8.1-3.8-12.6 C88,106.2,98.2,96,110.7,96h14.2l12.5-25.1c2.7-5.5,9.4-8.2,15.1-6.3l31.6,10.5c0.2,1.1,0.5,2.3,0.7,3.4l6.4,44.8L177.5,130.3z M56,110.2V92.6c0-20.9,9.2-40.5,25.2-53.8C92.6,29.2,107.1,24,121.9,24c23.1,0,43.9,12.7,55,31.9l-19.2-6.4c-2.9-1-5.9-1.5-9-1.5 c-10.9,0-20.6,6-25.5,15.8L115.1,80h-4.4C89.4,80,72,97.4,72,118.7c0,7.7,2.2,15.1,6.5,21.5l9.5,14.2v14.6l-0.8-0.5 C67.7,155.5,56,133.7,56,110.2z M24,488v-48h160v48H24z M184,424H24V276.7l78.6,86.3c7.6,8.3,18.3,13.1,29.6,13.1H184V424z M232,360h-99.8c-6.7,0-13.2-2.9-17.7-7.8l-84.2-92.4c-4-4.4-6.3-10.2-6.3-16.2c0-21.5,15.3-40.1,36.3-44.3l13.4-2.7l6.1,43 l-17.8-20.8l-12.2,10.4l79.6,93.2c3,3.6,7.5,5.6,12.2,5.6H232h0.2c8.8,0,15.9,7.1,16,15.9c0,4.3-1.6,8.3-4.6,11.4 c-3,3.1-7.1,4.7-11.4,4.7L232,360z M317.5,352.2c-4.5,5-11,7.8-17.7,7.8h-40c2.9-4.9,4.5-10.4,4.4-16.3c0-5.8-1.7-11.1-4.5-15.7 h30.6c4.7,0,9.1-2,12.2-5.6l16.2-19l9.3,18.5v18.8L317.5,352.2z M456,488H344v-48h32v-16h-32V318.1l-11.1-22.2 c-3.2-6.4-4.9-13.6-4.9-20.7c0-14.5,6.9-28.4,18.5-37.1l39.3-29.4c5.1,4.5,11.7,7.3,19,7.3c9.7,0,18.6-4.8,24-12.8l1.8-2.7 c15.6,8.6,25.3,24.7,25.3,42.7V424c0,8.8-7.2,16-16,16s-16-7.2-16-16V277.3c0-10.7-4.2-20.7-11.7-28.3l-6.6-6.6l-11.3,11.3l6.6,6.6 c4.5,4.5,7,10.6,7,17V424c0,17.6,14.4,32,32,32c5.9,0,11.3-1.7,16-4.4V488z M471.2,233.4c-2.9-19.1-14-35.9-31.2-46.2v-24.8 l9.5-14.2c4.2-6.4,6.5-13.8,6.5-21.5c0-21.3-17.4-38.7-38.7-38.7h-4.4l-8.1-16.2C400,62,390.2,56,379.3,56c-3.1,0-6.1,0.5-9,1.5 l-19.2,6.4c11.1-19.1,31.9-31.9,55-31.9c14.8,0,29.3,5.2,40.7,14.7l2.3,1.9C463.7,60.8,472,78.6,472,97.5v73.6 c0,18.4,4.9,36.3,14.1,52.1C483.2,226.1,478.3,230,471.2,233.4L471.2,233.4z"></path> </g> </svg> 