<?xml version="1.0" encoding="UTF-8"?> <svg xmlns="http://www.w3.org/2000/svg" xmlns:xlink="http://www.w3.org/1999/xlink" xmlns:svgjs="http://svgjs.com/svgjs" width="512" height="512" x="0" y="0" viewBox="0 0 64 64" style="enable-background:new 0 0 512 512" xml:space="preserve" class=""> <g> <circle xmlns="http://www.w3.org/2000/svg" cx="37" cy="14" fill="#3d9644" r="11" data-original="#f0bc5e" style=""></circle> <path xmlns="http://www.w3.org/2000/svg" d="m54.556 26h-9.112c-3.795 1.736-6.444 5.561-6.444 10 0 6.065 4.935 11 11 11s11-4.935 11-11c0-4.439-2.649-8.264-6.444-10z" fill="#3d9644" data-original="#f0bc5e" style=""></path> <path xmlns="http://www.w3.org/2000/svg" d="m57.364 42.212-.73 1.861c1.437.565 2.366 1.321 2.366 1.927 0 1.224-3.506 3-9 3s-9-1.776-9-3c0-.606.929-1.362 2.367-1.927l-.73-1.861c-2.345.92-3.637 2.265-3.637 3.788v12c0 3.248 5.667 5 11 5s11-1.752 11-5v-12c0-1.523-1.292-2.868-3.636-3.788zm-8.364 10.768c-1.524-.062-2.865-.263-4-.544v-1.962c1.264.279 2.63.45 4 .506zm0 2v2c-1.524-.062-2.865-.263-4-.544v-1.962c1.264.279 2.63.45 4 .506zm0 4v2c-1.524-.062-2.865-.263-4-.544v-1.962c1.264.279 2.63.45 4 .506zm2 0c1.37-.056 2.736-.227 4-.506v1.962c-1.135.28-2.476.482-4 .544zm0-2v-2c1.37-.056 2.736-.227 4-.506v1.962c-1.135.28-2.476.482-4 .544zm0-4v-2c1.37-.056 2.736-.227 4-.506v1.962c-1.135.28-2.476.482-4 .544zm-10-4.022c.574.362 1.253.675 2 .943v1.875c-1.284-.563-2-1.225-2-1.776zm0 4c.574.362 1.253.675 2 .943v1.875c-1.284-.563-2-1.225-2-1.776zm0 5.042v-1.042c.574.362 1.253.675 2 .943v1.875c-1.284-.563-2-1.225-2-1.776zm16 1.776v-1.875c.747-.268 1.426-.581 2-.943v1.042c0 .551-.716 1.213-2 1.776zm0-4v-1.875c.747-.268 1.426-.581 2-.943v1.042c0 .551-.716 1.213-2 1.776zm0-4v-1.875c.747-.268 1.426-.581 2-.943v1.042c0 .551-.716 1.213-2 1.776z" fill="#000000" data-original="#000000" style=""></path> <path xmlns="http://www.w3.org/2000/svg" d="m11 1v12h-5c-2.757 0-5 2.243-5 5v40c0 2.757 2.243 5 5 5h26c2.757 0 5-2.243 5-5v-23.5l-4-3v-4.5h30v-26zm-5 14h5v6h-5c-1.654 0-3-1.346-3-3s1.346-3 3-3zm-3 43v-36.002c.836.629 1.875 1.002 3 1.002h1v38h-1c-1.654 0-3-1.346-3-3zm32-22.5v22.5c0 1.654-1.346 3-3 3h-23v-38h19c1.654 0 3 1.346 3 3v6.5zm26-10.5h-28.101c-.465-2.279-2.484-4-4.899-4h-15v-18h48z" fill="#000000" data-original="#000000" style=""></path> <path xmlns="http://www.w3.org/2000/svg" d="m50 39c-.551 0-1-.448-1-1h-2c0 1.302.839 2.402 2 2.816v2.184h2v-2h2v-3c0-1.654-1.346-3-3-3-.551 0-1-.448-1-1v-1h1c.551 0 1 .448 1 1h2c0-1.302-.839-2.402-2-2.816v-2.184h-2v2h-2v3c0 1.654 1.346 3 3 3 .551 0 1 .448 1 1v1z" fill="#000000" data-original="#000000" style=""></path> <circle xmlns="http://www.w3.org/2000/svg" cx="44" cy="36" r="1" fill="#000000" data-original="#000000" style=""></circle> <circle xmlns="http://www.w3.org/2000/svg" cx="56" cy="36" r="1" fill="#000000" data-original="#000000" style=""></circle> <path xmlns="http://www.w3.org/2000/svg" d="m37 19c-1.103 0-2-.897-2-2h-2c0 1.859 1.28 3.411 3 3.858v2.142h2v-2h3v-4c0-2.206-1.794-4-4-4-1.103 0-2-.897-2-2v-2h2c1.103 0 2 .897 2 2h2c0-1.859-1.28-3.411-3-3.858v-2.142h-2v2h-3v4c0 2.206 1.794 4 4 4 1.103 0 2 .897 2 2v2z" fill="#000000" data-original="#000000" style=""></path> <path xmlns="http://www.w3.org/2000/svg" d="m44 13h2v2h-2z" fill="#000000" data-original="#000000" style=""></path> <path xmlns="http://www.w3.org/2000/svg" d="m28 13h2v2h-2z" fill="#000000" data-original="#000000" style=""></path> <path xmlns="http://www.w3.org/2000/svg" d="m27 48v-2c0-2.414-1.721-4.434-4-4.899v-7.917c1.161.414 2 1.514 2 2.816v1h2v-1c0-2.414-1.721-4.434-4-4.899v-4.101h-2v4h-2v-4h-2v4.101c-2.279.465-4 2.484-4 4.899v2c0 2.414 1.721 4.434 4 4.899v7.917c-1.161-.414-2-1.514-2-2.816v-1h-2v1c0 2.414 1.721 4.434 4 4.899v4.101h2v-4h2v4h2v-4.101c2.279-.465 4-2.485 4-4.899zm-6-15v8h-2v-8zm-6 5v-2c0-1.302.839-2.402 2-2.816v7.631c-1.161-.413-2-1.513-2-2.815zm4 13v-8h2v8zm6-3c0 1.302-.839 2.402-2 2.816v-7.631c1.161.414 2 1.514 2 2.816z" fill="#000000" data-original="#000000" style=""></path> <path xmlns="http://www.w3.org/2000/svg" d="m31 57h-4v2h4c1.103 0 2-.897 2-2v-12h-2z" fill="#000000" data-original="#000000" style=""></path> <path xmlns="http://www.w3.org/2000/svg" d="m31 41h2v2h-2z" fill="#000000" data-original="#000000" style=""></path> <path xmlns="http://www.w3.org/2000/svg" d="m57 11h2v-6h-6v2h4z" fill="#000000" data-original="#000000" style=""></path> <path xmlns="http://www.w3.org/2000/svg" d="m17 7h4v-2h-6v6h2z" fill="#000000" data-original="#000000" style=""></path> <path xmlns="http://www.w3.org/2000/svg" d="m59 17h-2v4h-4v2h6z" fill="#000000" data-original="#000000" style=""></path> </g> </svg> 