<?xml version="1.0" encoding="UTF-8"?> <svg xmlns="http://www.w3.org/2000/svg" xmlns:xlink="http://www.w3.org/1999/xlink" xmlns:svgjs="http://svgjs.com/svgjs" width="512" height="512" x="0" y="0" viewBox="0 0 64 64" style="enable-background:new 0 0 512 512" xml:space="preserve" class=""> <g> <g xmlns="http://www.w3.org/2000/svg"> <g> <g> <path d="m55 13c-2.206 0-4-1.794-4-4s1.794-4 4-4 4 1.794 4 4-1.794 4-4 4z" fill="#3d9644" data-original="#f0bc5e" style=""></path> </g> </g> <g> <g> <path d="m30 16c-2.206 0-4-1.794-4-4s1.794-4 4-4 4 1.794 4 4-1.794 4-4 4z" fill="#3d9644" data-original="#f0bc5e" style=""></path> </g> </g> <g> <g> <path d="m19 49c-2.206 0-4-1.794-4-4s1.794-4 4-4 4 1.794 4 4-1.794 4-4 4z" fill="#3d9644" data-original="#f0bc5e" style=""></path> </g> </g> <path d="m63 9.215v-.215c0-4.411-3.589-8-8-8s-8 3.589-8 8v.215c0 .602.078 1.2.213 1.785h-9.282c-.495-3.94-3.859-7-7.931-7s-7.436 3.06-7.931 7h-10.849l-.288.267c-6.312 5.852-9.932 14.138-9.932 22.733 0 6.931 2.357 13.659 6.579 19.074-5.777 1.308-6.579 2.77-6.579 3.926 0 5.932 29.734 6 31 6s31-.068 31-6c0-1.156-.802-2.618-6.579-3.926 4.222-5.415 6.579-12.143 6.579-19.074 0-5.382-1.409-10.657-4.057-15.307l3.081-5.648c.638-1.171.976-2.496.976-3.83zm-39 2.785c0-3.309 2.691-6 6-6s6 2.691 6 6v.215c0 1-.253 1.994-.732 2.873l-4.666 8.555c-.241.44-.962.44-1.203 0l-4.667-8.555c-.479-.879-.732-1.873-.732-2.873zm3.643 12.601c.471.863 1.375 1.399 2.357 1.399s1.886-.536 2.357-1.399l1.419-2.601h4.224c1.103 0 2 .897 2 2s-.897 2-2 2h-1c-1.654 0-3 1.346-3 3 0 .551-.449 1-1 1h-6c-.551 0-1-.449-1-1v-1c0-2.206-1.794-4-4-4-1.103 0-2-.897-2-2 0-1.654-1.346-3-3-3h-2c-.551 0-1-.449-1-1s.449-1 1-1h8.497zm-24.643 9.399c0-3.08.503-6.116 1.449-9h1.705c1.569 0 2.846 1.277 2.846 2.847 0 2.302 1.639 4.301 3.896 4.752l.513.103c.748.149 1.386.572 1.797 1.189.485.728 1.125 1.883 1.671 3.404-3.382.933-5.877 4.03-5.877 7.705v.215c0 1.334.338 2.659.977 3.831l3.247 5.954h-3.216c-5.73-5.459-9.008-13.09-9.008-21zm23.411 8h4.589c1.103 0 2 .897 2 2 0 1.654 1.346 3 3 3h4c.551 0 1 .448 1 1s-.449 1-1 1h-7c-2.206 0-4 1.794-4 4 0 .732.212 1.409.556 2h-6.781l3.248-5.954c.639-1.172.977-2.497.977-3.831v-.215c0-1.061-.212-2.073-.589-3zm-1.411 3.215c0 1.001-.253 1.995-.732 2.874l-4.666 8.554c-.241.441-.962.44-1.203.001l-4.667-8.555c-.479-.879-.732-1.873-.732-2.874v-.215c0-3.309 2.691-6 6-6s6 2.691 6 6zm36.003 11.753c-.52 1.448-10.65 4.032-29.003 4.032-18.36 0-28.492-2.587-29.005-3.965.004-.011.472-1.102 6.046-2.229.602.666 1.228 1.313 1.891 1.927l.288.267h5.095l.328.602c.471.862 1.375 1.398 2.357 1.398s1.886-.536 2.357-1.399l.328-.601h11.315 3 16.78l.288-.267c.663-.615 1.289-1.262 1.891-1.927 5.436 1.1 6.016 2.162 6.044 2.162zm-9.011-1.968h-15.992-3c-1.103 0-2-.897-2-2s.897-2 2-2h7c1.654 0 3-1.346 3-3s-1.346-3-3-3h-4c-.551 0-1-.448-1-1 0-2.206-1.794-4-4-4h-5.765c-1.468-1.826-3.715-3-6.235-3-.032 0-.062.004-.094.005-.64-1.913-1.443-3.334-2.035-4.223-.707-1.062-1.797-1.787-3.069-2.041l-.513-.103c-1.327-.265-2.289-1.439-2.289-2.791 0-2.673-2.174-4.847-4.847-4.847h-.965c1.538-3.742 3.845-7.165 6.821-10h10.041c.068.684.221 1.356.46 2h-7.51c-1.654 0-3 1.346-3 3s1.346 3 3 3h2c.551 0 1 .449 1 1 0 2.206 1.794 4 4 4 1.103 0 2 .897 2 2v1c0 1.654 1.346 3 3 3h6c1.654 0 3-1.346 3-3 0-.551.449-1 1-1h1c2.206 0 4-1.794 4-4s-1.794-4-4-4h-3.133l2.157-3.955c.513-.941.821-1.982.927-3.045h10.005c.008.015.013.031.021.046l2.156 3.954h-2.133c-2.206 0-4 1.794-4 4s1.794 4 4 4c1.103 0 2 .897 2 2 0 1.565.748 3.061 2 4l1.333 1c.418.313.667.812.667 1.333 0 .919-.748 1.667-1.667 1.667h-4.333c-2.206 0-4 1.794-4 4s1.794 4 4 4h3c1.103 0 2 .897 2 2 0 2.141 1.694 3.879 3.81 3.981-1.324 2.195-2.936 4.226-4.818 6.019zm9.008-21c0 4.546-1.088 8.998-3.097 13h-.903c-1.103 0-2-.897-2-2 0-2.206-1.794-4-4-4h-3c-1.103 0-2-.897-2-2s.897-2 2-2h4.333c2.022 0 3.667-1.645 3.667-3.667 0-1.148-.548-2.245-1.467-2.933l-1.333-1c-.751-.563-1.2-1.461-1.2-2.4 0-2.206-1.794-4-4-4-1.103 0-2-.897-2-2s.897-2 2-2h3.224l1.419 2.601c.471.863 1.375 1.399 2.357 1.399s1.886-.536 2.357-1.399l.45-.825c2.091 4.074 3.193 8.608 3.193 13.224zm0-24.785c0 1-.253 1.994-.732 2.873l-4.666 8.555c-.241.44-.962.44-1.203 0l-4.667-8.555c-.479-.879-.732-1.873-.732-2.873v-.215c0-3.309 2.691-6 6-6s6 2.691 6 6z" fill="#000000" data-original="#000000" style=""></path> </g> </g> </svg> 